<?xml version="1.0" encoding="iso-8859-1"?>
<!-- Generator: Adobe Illustrator 19.0.0, SVG Export Plug-In . SVG Version: 6.00 Build 0)  -->
<svg version="1.1" id="Layer_1" xmlns="http://www.w3.org/2000/svg" xmlns:xlink="http://www.w3.org/1999/xlink" x="0px" y="0px"
	 viewBox="0 0 485 485" style="enable-background:new 0 0 485 485;" xml:space="preserve">
<g>
	<g>
		<g>
			<path d="M340.4,360.553c-8.933-4.706-30.926-17.169-40.4-26.111v-24.3c30.386-17.373,51.165-48.544,57.804-86.697
				C375.018,218.516,390,202.361,390,187.5c0-15.044-11.308-25.026-30-27.094V70.609l-0.896-1.665
				c-0.383-0.711-9.588-17.599-28.472-34.528C305.519,11.9,275.043,0,242.5,0c-32.543,0-63.019,11.9-88.132,34.416
				c-18.884,16.93-28.089,33.817-28.472,34.528L125,70.609v89.796c-18.692,2.068-30,12.051-30,27.094
				c0,14.861,14.982,31.017,32.196,35.946c6.646,38.167,27.428,69.336,57.804,86.697v24.299c-9.48,8.947-31.494,21.42-40.417,26.119
				c-97.482,31.626-99.542,89.368-99.582,91.816L45,485h395v-32.541C439.986,449.996,438.545,391.89,340.4,360.553z M360,175.482
				c13.367,1.874,15,8.786,15,12.018c0,6.126-6.627,14.466-15.266,19.07C359.899,203.606,360,175.482,360,175.482z M110,187.5
				c0-3.232,1.633-10.144,15-12.018c0,0,0.101,28.125,0.266,31.088C116.627,201.966,110,193.626,110,187.5z M140,74.522
				c2.603-4.297,10.835-16.89,24.78-29.293C187.332,25.17,213.481,15,242.5,15s55.168,10.17,77.72,30.229
				c13.952,12.408,22.185,25.008,24.78,29.294v70.08c-44.435-4.44-104.034-45.353-107.969-48.086
				c-2.063-1.696-21.146-17.542-33.604-33.612l-11.855,9.191c9.215,11.886,21.377,23.327,29.002,30.074
				c-28.696,20.344-64.597,28.693-80.574,31.574V74.522z M141.227,216.156C140.413,210.363,140,204.087,140,197.5v-45v-3.501
				c16.352-2.678,59.21-11.768,92.822-37.202c15.971,10.654,69.204,44.164,112.178,47.869V197.5c0,6.587-0.413,12.863-1.229,18.674
				c-5.158,37.347-25.102,67.549-54.733,82.874C275.075,306.315,259.418,310,242.5,310c-16.918,0-32.575-3.685-46.555-10.962
				C166.331,283.723,146.388,253.521,141.227,216.156z M285,317.299v17.312c-4.884,5.106-19.858,18.96-39.506,20.277l-5.987-0.002
				c-19.531-1.326-34.602-15.199-39.507-20.291v-17.298c13.182,5.109,27.424,7.703,42.5,7.703
				C257.579,325,271.824,322.405,285,317.299z M60,470v-17.362c0.048-0.88,0.904-12.937,11.582-28.015
				c18.801-26.55,52.912-41.836,78.217-49.984c0,0,28.46-14.881,42.447-26.6c6.563,6.18,18.6,15.628,34.285,19.823l-39.335,39.334
				l10.607,10.607l44.696-44.697l44.696,44.697l10.607-10.607l-39.335-39.334c15.685-4.195,27.722-13.643,34.285-19.823
				c13.987,11.719,42.481,26.61,42.481,26.61c25.456,8.064,59.721,23.257,78.396,49.836c10.718,15.254,11.344,27.458,11.368,28.096
				V470H60z"/>
			<rect x="232.5" y="405" width="20" height="15"/>
			<rect x="232.5" y="435" width="20" height="15"/>
			<path d="M242.5,235h20v-15H250v-32.5h-15v40C235,231.643,238.357,235,242.5,235z"/>
		</g>
	</g>
</g>
<g>
</g>
<g>
</g>
<g>
</g>
<g>
</g>
<g>
</g>
<g>
</g>
<g>
</g>
<g>
</g>
<g>
</g>
<g>
</g>
<g>
</g>
<g>
</g>
<g>
</g>
<g>
</g>
<g>
</g>
</svg>
